# xmcd CD database file
#
# Track frame offsets:
#	150
#	14630
#	32810
#	46615
#	62237
#	78295
#	96557
#	109690
#	127252
#	139505
#	153615
#	170972
#	186167
#	200902
#	220617
#	232157
#	243295
#	257440
#	274755
#	289147
#
# Disc length: 4111 seconds
#
# Revision: 0
# Processed by: cddbd v1.5.2PL0 Copyright (c) Steve Scherf et al.
# Submitted via: CDex 1.70beta2
#
DISCID=31100d14
DTITLE=ChartBreakers - ChartBreakers CGC-538
DYEAR=1900
DGENRE=Country
TTITLE0=T Graham Brown - Hell And High Water
TTITLE1=Oak Ridge Boys - I Guess It Never Hurts To Hurt Sometimes
TTITLE2=Judds - Let Me Tell You About Love
TTITLE3=Dan Seals - My Baby's Got Good Timing
TTITLE4=Kenny Rogers - Gambler
TTITLE5=Dolly Parton, Emmylou Harris and Linda Ronstadt - Those Memories Of You
TTITLE6=Lynn Anderson - Rose Garden
TTITLE7=Dolly Parton - Silver And Gold
TTITLE8=Charlie Rich - Most Beautiful Girl
TTITLE9=Mickey Gilley - You Don't Know Me
TTITLE10=Bellamy Brothers - When I'm Away From You
TTITLE11=Sawyer Brown - Used To Blue
TTITLE12=Mickey Gilley - Talk To Me
TTITLE13=Kenny Rogers - Through The Years
TTITLE14=Waylon Jennings - Rough And Rowdy Days
TTITLE15=Linda Ronstadt - Silver Threads And Golden Needles
TTITLE16=David Allan Coe - Ride
TTITLE17=K T Oslin - Hey Bobby
TTITLE18=Eddie Rabbitt - I Love A Rainy Night
TTITLE19=Reba McEntire - Let The Music Lift You Up
EXTD=YEAR: 1900
EXTT0=
EXTT1=
EXTT2=
EXTT3=
EXTT4=
EXTT5=
EXTT6=
EXTT7=
EXTT8=
EXTT9=
EXTT10=
EXTT11=
EXTT12=
EXTT13=
EXTT14=
EXTT15=
EXTT16=
EXTT17=
EXTT18=
EXTT19=
PLAYORDER=
